<?xml version="1.0" standalone="yes"?>
<svg xmlns="http://www.w3.org/2000/svg" width="460" height="460">
<path style="fill:#060404; stroke:none;" d="M0 0L0 460L56 460C56 417.947 71.2498 383.486 103.2 355.57C111.445 348.366 122.336 345.308 130.682 338.648C135.217 335.03 134.38 325.285 138.61 320.286C150.068 306.744 171.013 301.729 188 301C187.437 293.923 180.222 292.659 175 289.176C167.029 283.859 159.456 276.332 153.325 268.985C141.043 254.268 140.154 237.249 132.297 221.133C129.649 215.7 121.326 213.342 117.653 208C112.161 200.013 113.685 179.353 115.329 170C117.478 157.768 129.913 158.292 134.121 149.772C137.753 142.418 137.232 131.973 139.425 124C144.522 105.47 151.921 93.0468 164.816 79.0394C168.904 74.5984 173.136 67.7652 179 65.6034C183.971 63.7708 189.905 65.8605 195 65.9854C207.578 66.2935 220.431 66.5111 233 65.9606C243.651 65.4942 254.374 64.9307 265 64C269.554 63.6012 274.825 61.8746 278.961 64.6034C283.581 67.6521 286.873 73.1088 291 76.8295C303.143 87.776 312.729 95.6757 317.561 112C321.659 125.846 320.949 140.448 326 154C348.79 150.951 350.704 191.811 343.95 205.999C340.482 213.284 332.128 214.446 328.433 220.418C324.891 226.143 324.68 235.54 322.304 242C317.72 254.464 310.325 265.671 301 275C294.444 281.559 288.246 288.037 280 292.459C277.951 293.558 272.636 295.159 272.636 298.076C272.636 302.036 282.31 302.157 285 302.576C297.681 304.547 311.897 309.163 320.699 319.039C325.563 324.497 325.045 333.316 329.6 338.046C337.269 346.01 350.46 349.485 359 357.171C390.42 385.447 404 418.335 404 460L460 460L460 0L0 0z"/>
<path style="fill:#24547c; stroke:none;" d="M269.667 63.3333L270.333 63.6667L269.667 63.3333z"/>
<path style="fill:#909599; stroke:none;" d="M271 63L272 64L271 63z"/>
<path style="fill:#ecbb8f; stroke:none;" d="M272 63.4437C249.748 66.4927 227.469 66 205 66C197.154 66 183.283 63.3419 176.289 67.1644C171.582 69.7368 168.497 75.1703 164.914 78.9854C160.31 83.8858 154.841 88.1605 151.352 94C141.461 110.553 140.38 128.933 135.556 146.995C132.838 157.175 118.056 157.109 115.619 170C113.647 180.431 112.192 201.009 118.804 209.91C122.402 214.753 129.827 215.956 132.57 221.108C134.946 225.57 134.826 231.231 136.359 236C139.978 247.26 145.415 258.548 152.598 268C158.283 275.481 166.177 283.358 174 288.594C177.898 291.203 183.221 292.562 186.682 295.698C192.438 300.914 189 320.655 189 328C189 354.473 205.846 377.959 235 374.826C261.187 372.013 271.998 349.772 272 326C272 318.488 269.217 304.291 272.452 297.529C274.498 293.253 282.198 291.239 286 288.815C292.898 284.417 298.971 277.962 304.525 271.999C318.499 256.995 319.48 239.292 327.514 222.044C330.241 216.188 338.539 214.475 342.347 208.996C347.991 200.876 346.66 177.472 344.471 168C341.471 155.026 327.376 157.789 323.563 147.995C316.878 130.824 320.088 111.705 310.121 95.0394C305.648 87.5587 297.59 82.7781 291.285 77C285.637 71.8225 280.635 62.2605 272 63.4437z"/>
<path style="fill:#24547c; stroke:none;" d="M278 63L279 64L278 63M260 64L260 65L263 65L260 64z"/>
<path style="fill:#909599; stroke:none;" d="M263 64L263 65L267 65L263 64M279 64L280 65L279 64z"/>
<path style="fill:#24547c; stroke:none;" d="M177 65L177 66L180 66L177 65z"/>
<path style="fill:#909599; stroke:none;" d="M180 65L180 66L184 66L180 65z"/>
<path style="fill:#24547c; stroke:none;" d="M184 65L184 66L190 66L184 65M237 65L237 66L242 66L237 65z"/>
<path style="fill:#909599; stroke:none;" d="M242 65L242 66L253 66L242 65M280 65L281 66L280 65M176 66L177 67L176 66z"/>
<path style="fill:#24547c; stroke:none;" d="M281 66L282 67L281 66M282 67L283 68L282 67z"/>
<path style="fill:#909599; stroke:none;" d="M174 68L175 69L174 68M173 69L174 70L173 69M283 69L284 70L283 69M172 70L173 71L172 70M284 70L285 71L284 70M285 71L286 72L285 71M170 72L171 73L170 72M286 72L287 73L286 72z"/>
<path style="fill:#24547c; stroke:none;" d="M169 73L170 74L169 73z"/>
<path style="fill:#909599; stroke:none;" d="M287 73L288 74L287 73M288 74L289 75L288 74z"/>
<path style="fill:#24547c; stroke:none;" d="M167 75L168 76L167 75z"/>
<path style="fill:#909599; stroke:none;" d="M167 76L168 77L167 76M290 76L291 77L290 76M166 77L167 78L166 77M291 77L292 78L291 77z"/>
<path style="fill:#24547c; stroke:none;" d="M165 78L166 79L165 78z"/>
<path style="fill:#909599; stroke:none;" d="M292 78L293 79L292 78M164 79L165 80L164 79z"/>
<path style="fill:#24547c; stroke:none;" d="M294 79L295 80L294 79z"/>
<path style="fill:#909599; stroke:none;" d="M163 80L164 81L163 80z"/>
<path style="fill:#24547c; stroke:none;" d="M295 80L296 81L295 80M162 81L163 82L162 81z"/>
<path style="fill:#909599; stroke:none;" d="M296 81L297 82L296 81z"/>
<path style="fill:#24547c; stroke:none;" d="M161 82L162 83L161 82z"/>
<path style="fill:#909599; stroke:none;" d="M297 82L298 83L297 82M160 83L161 84L160 83M298 83L299 84L298 83z"/>
<path style="fill:#24547c; stroke:none;" d="M299 83L300 84L299 83z"/>
<path style="fill:#909599; stroke:none;" d="M300 84L301 85L300 84z"/>
<path style="fill:#24547c; stroke:none;" d="M158 85L159 86L158 85z"/>
<path style="fill:#909599; stroke:none;" d="M301 85L302 86L301 85z"/>
<path style="fill:#24547c; stroke:none;" d="M157 86L158 87L157 86z"/>
<path style="fill:#909599; stroke:none;" d="M302 86L303 87L302 86M156 87L157 88L156 87M303 87L304 88L303 87z"/>
<path style="fill:#24547c; stroke:none;" d="M304 87L305 88L304 87z"/>
<path style="fill:#909599; stroke:none;" d="M155 88L156 89L155 88z"/>
<path style="fill:#24547c; stroke:none;" d="M305 88L306 89L305 88z"/>
<path style="fill:#909599; stroke:none;" d="M305 89L306 90L305 89z"/>
<path style="fill:#24547c; stroke:none;" d="M153 90L154 91L153 90z"/>
<path style="fill:#909599; stroke:none;" d="M306 90L307 91L306 90z"/>
<path style="fill:#24547c; stroke:none;" d="M152 91L153 92L152 91z"/>
<path style="fill:#909599; stroke:none;" d="M308 92L309 93L308 92M151 93L152 94L151 93z"/>
<path style="fill:#24547c; stroke:none;" d="M309 93L310 94L309 93M150 94L151 95L150 94z"/>
<path style="fill:#909599; stroke:none;" d="M150 95L151 96L150 95z"/>
<path style="fill:#24547c; stroke:none;" d="M310 95L311 96L310 95M149 97L150 98L149 97M311 97L312 98L311 97z"/>
<path style="fill:#909599; stroke:none;" d="M148 99L149 100L148 99M312 99L313 100L312 99z"/>
<path style="fill:#24547c; stroke:none;" d="M147 100L148 101L147 100M313 100L314 101L313 100z"/>
<path style="fill:#909599; stroke:none;" d="M147 101L148 102L147 101M313.333 101.667L313.667 102.333L313.333 101.667z"/>
<path style="fill:#24547c; stroke:none;" d="M146 103L147 104L146 103M314 103L315 104L314 103z"/>
<path style="fill:#909599; stroke:none;" d="M146 104L147 105L146 104M314 104L315 105L314 104M145 106L146 107L145 106z"/>
<path style="fill:#24547c; stroke:none;" d="M315 106L316 107L315 106z"/>
<path style="fill:#909599; stroke:none;" d="M315 107L316 108L315 107z"/>
<path style="fill:#24547c; stroke:none;" d="M144 108L145 109L144 108M316 108L317 109L316 108z"/>
<path style="fill:#909599; stroke:none;" d="M144 109L145 110L144 109M316 109L317 110L316 109z"/>
<path style="fill:#24547c; stroke:none;" d="M143 110L144 111L143 110z"/>
<path style="fill:#909599; stroke:none;" d="M143 111L144 112L143 111z"/>
<path style="fill:#24547c; stroke:none;" d="M317 111L318 112L317 111z"/>
<path style="fill:#909599; stroke:none;" d="M317 112L317 115L318 115L317 112z"/>
<path style="fill:#24547c; stroke:none;" d="M142 114L143 115L142 114z"/>
<path style="fill:#909599; stroke:none;" d="M142 115L143 116L142 115z"/>
<path style="fill:#24547c; stroke:none;" d="M318.333 115.667L318.667 116.333L318.333 115.667M141.333 116.667L141.667 117.333L141.333 116.667z"/>
<path style="fill:#909599; stroke:none;" d="M318.333 117.667L318.667 118.333L318.333 117.667M141 118L142 119L141 118z"/>
<path style="fill:#24547c; stroke:none;" d="M140 120L141 121L140 120M319 120L320 121L319 120z"/>
<path style="fill:#909599; stroke:none;" d="M140 121L141 122L140 121M319 121L319 124L320 124L319 121z"/>
<path style="fill:#24547c; stroke:none;" d="M139 123L140 124L139 123z"/>
<path style="fill:#909599; stroke:none;" d="M139.333 124.667L139.667 125.333L139.333 124.667z"/>
<path style="fill:#24547c; stroke:none;" d="M320 125L320 128L321 128L320 125M138 127L139 128L138 127z"/>
<path style="fill:#909599; stroke:none;" d="M138 128L138 132L139 132L138 128M320.333 128.667L320.667 129.333L320.333 128.667z"/>
<path style="fill:#24547c; stroke:none;" d="M137.333 132.667L137.667 133.333L137.333 132.667M321 132L321 135L322 135L321 132z"/>
<path style="fill:#909599; stroke:none;" d="M137.333 134.667L137.667 135.333L137.333 134.667M184 135L184 136L196 136L184 135M264 135L264 136L277 136L264 135M321.333 135.667L321.667 136.333L321.333 135.667M177.667 136.333L178.333 136.667L177.667 136.333z"/>
<path style="fill:#24547c; stroke:none;" d="M179 136.465C171.607 137.797 164.324 141.203 158.62 146.09C157.056 147.43 151.549 154.761 157.152 154.794C160.875 154.816 165.711 149.24 169 147.475C176.137 143.645 184.879 141.546 193 142.09C195.794 142.276 202.834 144.613 204.673 141.412C206.336 138.517 202.11 136.622 199.995 136.228C193.787 135.074 185.199 135.347 179 136.465z"/>
<path style="fill:#909599; stroke:none;" d="M202.667 136.333L203.333 136.667L202.667 136.333M257 136L258 137L257 136z"/>
<path style="fill:#24547c; stroke:none;" d="M258.149 136.742C255.25 138.057 254.659 141.732 258.149 142.667C268.863 145.54 278.92 141.027 290 146.785C293.222 148.46 300.958 156.636 304.547 154.824C310.646 151.746 298.289 143.284 296 141.954C286.897 136.668 268.374 132.104 258.149 136.742z"/>
<path style="fill:#909599; stroke:none;" d="M282.667 136.333L283.333 136.667L282.667 136.333z"/>
<path style="fill:#24547c; stroke:none;" d="M136 137L136 140L137 140L136 137z"/>
<path style="fill:#909599; stroke:none;" d="M174 137L175 138L174 137M204 137L205 138L204 137M285.667 137.333L286.333 137.667L285.667 137.333M171 138L172 139L171 138M205 138L206 139L205 138M288.667 138.333L289.333 138.667L288.667 138.333M169 139L170 140L169 139M254.333 139.667L254.667 140.333L254.333 139.667M290 139L291 140L290 139M136 140L136 143L137 143L136 140M166 140L167 141L166 140M293 140L294 141L293 140M205 141L206 142L205 141M295 141L296 142L295 141M163 142L164 143L163 142M184 142L184 143L197 143L184 142M255 142L256 143L255 142M263 142L263 143L277 143L263 142z"/>
<path style="fill:#24547c; stroke:none;" d="M322.333 142.667L322.667 143.333L322.333 142.667z"/>
<path style="fill:#909599; stroke:none;" d="M162 143L163 144L162 143M179.667 143.333L180.333 143.667L179.667 143.333M200 143L200 144L204 144L200 143M256 143L256 144L261 144L256 143M279.667 143.333L280.333 143.667L279.667 143.333M298 143L299 144L298 143z"/>
<path style="fill:#24547c; stroke:none;" d="M135 144L135 147L136 147L135 144z"/>
<path style="fill:#909599; stroke:none;" d="M160 144L161 145L160 144M175.667 144.333L176.333 144.667L175.667 144.333M283 144L283 145L286 145L283 144M299.667 144.333L300.333 144.667L299.667 144.333M322 144L323 145L322 144M172 145L173 146L172 145M287 145L288 146L287 145M301 145L302 146L301 145M158 146L159 147L158 146M170 146L171 147L170 146M289 146L290 147L289 146M302 146L303 147L302 146z"/>
<path style="fill:#24547c; stroke:none;" d="M323 146L324 147L323 146z"/>
<path style="fill:#909599; stroke:none;" d="M135 147L136 148L135 147M169 147L170 148L169 147M291 147L292 148L291 147M303 147L304 148L303 147M323.333 147.667L323.667 148.333L323.333 147.667M166.667 148.333L167.333 148.667L166.667 148.333M293 148L294 149L293 148M304 148L305 149L304 148z"/>
<path style="fill:#24547c; stroke:none;" d="M134 149L135 150L134 149z"/>
<path style="fill:#909599; stroke:none;" d="M165 149L166 150L165 149M305 149L306 150L305 149M134.333 150.667L134.667 151.333L134.333 150.667M154 150L155 151L154 150M163 150L164 151L163 150M296 150L297 151L296 150z"/>
<path style="fill:#24547c; stroke:none;" d="M324 150L325 151L324 150z"/>
<path style="fill:#909599; stroke:none;" d="M153.333 151.667L153.667 152.333L153.333 151.667M162 151L163 152L162 151M297 151L298 152L297 151z"/>
<path style="fill:#24547c; stroke:none;" d="M132 152L133 153L132 152z"/>
<path style="fill:#db5967; stroke:none;" d="M133 152L134 153L133 152z"/>
<path style="fill:#909599; stroke:none;" d="M161 152L162 153L161 152M325 152L326 153L325 152z"/>
<path style="fill:#24547c; stroke:none;" d="M128 153L129 154L128 153z"/>
<path style="fill:#909599; stroke:none;" d="M129 153L130 154L129 153M160 153L161 154L160 153M306 153L307 154L306 153z"/>
<path style="fill:#24547c; stroke:none;" d="M328 153L329 154L328 153z"/>
<path style="fill:#909599; stroke:none;" d="M329 153L329 154L332 154L329 153z"/>
<path style="fill:#24547c; stroke:none;" d="M126 154L127 155L126 154z"/>
<path style="fill:#909599; stroke:none;" d="M154 154L155 155L154 154M159 154L160 155L159 154M125 155L126 156L125 155M155 155L156 156L155 155M158 155L159 156L158 155M305 155L306 156L305 155M335 155L336 156L335 155M123 156L124 157L123 156M336 156L337 157L336 156z"/>
<path style="fill:#24547c; stroke:none;" d="M337 156L338 157L337 156z"/>
<path style="fill:#909599; stroke:none;" d="M122 157L123 158L122 157z"/>
<path style="fill:#24547c; stroke:none;" d="M338 157L339 158L338 157z"/>
<path style="fill:#909599; stroke:none;" d="M121 158L122 159L121 158z"/>
<path style="fill:#24547c; stroke:none;" d="M339 158L340 159L339 158z"/>
<path style="fill:#909599; stroke:none;" d="M120 159L121 160L120 159z"/>
<path style="fill:#24547c; stroke:none;" d="M340 159L341 160L340 159z"/>
<path style="fill:#909599; stroke:none;" d="M119 160L120 161L119 160z"/>
<path style="fill:#24547c; stroke:none;" d="M341 160L342 161L341 160M118 161L119 162L118 161M342 162L343 163L342 162M117 163L118 164L117 163z"/>
<path style="fill:#909599; stroke:none;" d="M343 164L344 165L343 164M116 165L117 166L116 165M183 166L183 167L187 167L183 166M273 166L273 167L277 167L273 166z"/>
<path style="fill:#24547c; stroke:none;" d="M344 166L345 167L344 166z"/>
<path style="fill:#909599; stroke:none;" d="M180 167L179 169L180 167z"/>
<path style="fill:#24547c; stroke:none;" d="M181.005 167.858C169.022 172.778 177.072 191.186 188.96 186.142C200.821 181.109 192.997 162.935 181.005 167.858z"/>
<path style="fill:#909599; stroke:none;" d="M189 167L190 168L189 167M271 167L272 168L271 167z"/>
<path style="fill:#24547c; stroke:none;" d="M272.005 167.743C259.214 172.647 267.86 191.191 279.956 185.991C291.287 181.12 283.837 163.207 272.005 167.743z"/>
<path style="fill:#909599; stroke:none;" d="M279 167L280 168L279 167M344 167L345 168L344 167z"/>
<path style="fill:#24547c; stroke:none;" d="M115 168L116 169L115 168z"/>
<path style="fill:#909599; stroke:none;" d="M190 168L191 169L190 168M269 168L270 169L269 168M281 168L282 169L281 168M115.333 169.667L115.667 170.333L115.333 169.667M177 169L178 170L177 169M268 169L269 170L268 169M176 170L177 171L176 170M267 170L268 171L267 170z"/>
<path style="fill:#24547c; stroke:none;" d="M345 170L345 174L346 174L345 170z"/>
<path style="fill:#909599; stroke:none;" d="M175 171L176 172L175 171M266 171L267 172L266 171M194 172L195 173L194 172M285 172L285 175L286 175L285 172M265.333 173.667L265.667 174.333L265.333 173.667M345 174L345 177L346 177L345 174M174 175L174 179L175 179L174 175M195 175L195 179L196 179L195 175z"/>
<path style="fill:#24547c; stroke:none;" d="M345 177L345 193L346 193L345 177z"/>
<path style="fill:#909599; stroke:none;" d="M285 178L285 181L286 181L285 178M265.333 179.667L265.667 180.333L265.333 179.667M175 181L176 182L175 181M266 181L267 182L266 181M193 182L194 183L193 182M284 182L285 183L284 182M176 183L177 184L176 183M267 183L268 184L267 183M177 184L178 185L177 184M268 184L269 185L268 184M179 185L180 186L179 185M190 185L191 186L190 185M269 185L270 186L269 185M281 185L282 186L281 185M180 186L181 187L180 186M189 186L190 187L189 186M271 186L272 187L271 186M279 186L280 187L279 186M183 187L183 188L187 188L183 187M273 187L273 188L277 188L273 187M345 193L345 198L346 198L345 193z"/>
<path style="fill:#24547c; stroke:none;" d="M345 198L345 202L346 202L345 198z"/>
<path style="fill:#909599; stroke:none;" d="M115 201L115 204L116 204L115 201z"/>
<path style="fill:#24547c; stroke:none;" d="M115 204L116 205L115 204M344 205L345 206L344 205M116 206L117 207L116 206M343 207L344 208L343 207M117 208L118 209L117 208z"/>
<path style="fill:#909599; stroke:none;" d="M118 209L119 210L118 209M210 209C213.402 220.423 223.71 221.291 234 220.985C239.226 220.829 246.899 218.644 248 213L251 209L210 209z"/>
<path style="fill:#24547c; stroke:none;" d="M341 210L342 211L341 210M340 211L341 212L340 211z"/>
<path style="fill:#909599; stroke:none;" d="M339 212L340 213L339 212M122 213L123 214L122 213M123 214L124 215L123 214z"/>
<path style="fill:#24547c; stroke:none;" d="M337 214L338 215L337 214M124 215L125 216L124 215z"/>
<path style="fill:#909599; stroke:none;" d="M335 215L336 216L335 215M126 216L127 217L126 216z"/>
<path style="fill:#24547c; stroke:none;" d="M334 216L335 217L334 216M128 217L129 218L128 217z"/>
<path style="fill:#909599; stroke:none;" d="M129 217L130 218L129 217M331 217L332 218L331 217z"/>
<path style="fill:#24547c; stroke:none;" d="M332 217L333 218L332 217z"/>
<path style="fill:#909599; stroke:none;" d="M131 218L132 219L131 218M329 218L330 219L329 218z"/>
<path style="fill:#24547c; stroke:none;" d="M132.333 219.667L132.667 220.333L132.333 219.667z"/>
<path style="fill:#909599; stroke:none;" d="M327.333 220.667L327.667 221.333L327.333 220.667z"/>
<path style="fill:#24547c; stroke:none;" d="M327 222L328 223L327 222z"/>
<path style="fill:#909599; stroke:none;" d="M133.333 223.667L133.667 224.333L133.333 223.667z"/>
<path style="fill:#24547c; stroke:none;" d="M133 225L134 226L133 225z"/>
<path style="fill:#909599; stroke:none;" d="M326.333 225.667L326.667 226.333L326.333 225.667M134 227L134 230L135 230L134 227z"/>
<path style="fill:#24547c; stroke:none;" d="M326 227L327 228L326 227M134 230L135 231L134 230z"/>
<path style="fill:#909599; stroke:none;" d="M325.333 231.667L325.667 232.333L325.333 231.667M135 233L136 234L135 233z"/>
<path style="fill:#24547c; stroke:none;" d="M135 234L136 235L135 234z"/>
<path style="fill:#909599; stroke:none;" d="M324 235L325 236L324 235M136 236L137 237L136 236z"/>
<path style="fill:#24547c; stroke:none;" d="M136 237L137 238L136 237z"/>
<path style="fill:#909599; stroke:none;" d="M200 237L200 238L204 238L200 237M258 237L258 238L261 238L258 237M323 237L324 238L323 237M198 238L199 239L198 238z"/>
<path style="fill:#24547c; stroke:none;" d="M207 262C217.846 257.535 228.138 256.421 240 257.108C244.169 257.35 250.064 262.343 253.816 260.252C259.443 257.117 268.021 239.74 258 238C254.218 250.62 221.826 250.298 211.004 246.106C207.177 244.624 205.26 241.694 204 238C190.834 239.026 203.239 256.747 207 262M323 238L324 239L323 238M137 239L138 240L137 239z"/>
<path style="fill:#909599; stroke:none;" d="M262 239L263 240L262 239M197 240L197 244L198 244L197 240M204 240L205 241L204 240M257 240L258 241L257 240M322 240L323 241L322 240M138.333 241.667L138.667 242.333L138.333 241.667M263 241L264 242L263 241z"/>
<path style="fill:#24547c; stroke:none;" d="M322 241L323 242L322 241z"/>
<path style="fill:#909599; stroke:none;" d="M205 242L206 243L205 242M256 242L257 243L256 242z"/>
<path style="fill:#24547c; stroke:none;" d="M138 243L139 244L138 243z"/>
<path style="fill:#909599; stroke:none;" d="M255 244L256 245L255 244M321 244L322 245L321 244M139 245L140 246L139 245M262 245L263 246L262 245M198.333 246.667L198.667 247.333L198.333 246.667M211.667 246.333L212.333 246.667L211.667 246.333M250.667 246.333L251.333 246.667L250.667 246.333z"/>
<path style="fill:#24547c; stroke:none;" d="M320 246L321 247L320 246z"/>
<path style="fill:#909599; stroke:none;" d="M140 247L141 248L140 247M261 248L262 249L261 248z"/>
<path style="fill:#24547c; stroke:none;" d="M319 248L320 249L319 248z"/>
<path style="fill:#909599; stroke:none;" d="M141 249L142 250L141 249M199.333 249.667L199.667 250.333L199.333 249.667M142 250L143 251L142 250M260 251L261 252L260 251M317 251L318 252L317 251M200 252L201 253L200 252z"/>
<path style="fill:#24547c; stroke:none;" d="M317 252L318 253L317 252z"/>
<path style="fill:#909599; stroke:none;" d="M143 253L144 254L143 253M259 253L260 254L259 253M144 254L145 255L144 254M258 254L259 255L258 254z"/>
<path style="fill:#24547c; stroke:none;" d="M316 254L317 255L316 254M144 255L145 256L144 255z"/>
<path style="fill:#909599; stroke:none;" d="M202 255L203 256L202 255M315 255L316 256L315 255M145 256L146 257L145 256M257 256L258 257L257 256z"/>
<path style="fill:#24547c; stroke:none;" d="M315 256L316 257L315 256M145 257L146 258L145 257z"/>
<path style="fill:#db5967; stroke:none;" d="M208 262L208 263C220.765 273.49 239.288 273.516 252 263C244.321 253.283 217.062 254.742 208 262z"/>
<path style="fill:#909599; stroke:none;" d="M256 257L257 258L256 257M314 257L315 258L314 257z"/>
<path style="fill:#24547c; stroke:none;" d="M146 258L147 259L146 258z"/>
<path style="fill:#909599; stroke:none;" d="M204 258L205 259L204 258M313 258L314 259L313 258M205 259L206 260L205 259z"/>
<path style="fill:#24547c; stroke:none;" d="M313 259L314 260L313 259z"/>
<path style="fill:#909599; stroke:none;" d="M147 260L148 261L147 260M254 260L255 261L254 260M253 261L254 262L253 261z"/>
<path style="fill:#24547c; stroke:none;" d="M312 261L313 262L312 261M311 262L312 263L311 262M149 263L150 264L149 263z"/>
<path style="fill:#909599; stroke:none;" d="M310 263L311 264L310 263M150 264L151 265L150 264z"/>
<path style="fill:#24547c; stroke:none;" d="M310 264L311 265L310 264M150 265L151 266L150 265z"/>
<path style="fill:#909599; stroke:none;" d="M151 266L152 267L151 266z"/>
<path style="fill:#24547c; stroke:none;" d="M309 266L310 267L309 266z"/>
<path style="fill:#909599; stroke:none;" d="M308 267L309 268L308 267z"/>
<path style="fill:#24547c; stroke:none;" d="M152 268L153 269L152 268z"/>
<path style="fill:#909599; stroke:none;" d="M307 268L308 269L307 268M153 269L154 270L153 269z"/>
<path style="fill:#24547c; stroke:none;" d="M154 270L155 271L154 270z"/>
<path style="fill:#909599; stroke:none;" d="M305 270L306 271L305 270M155 271L156 272L155 271M156 272L157 273L156 272M157 273L158 274L157 273M301 274L302 275L301 274M159 275L160 276L159 275M160 276L161 277L160 276M161 277L162 278L161 277z"/>
<path style="fill:#24547c; stroke:none;" d="M162 278L163 279L162 278z"/>
<path style="fill:#909599; stroke:none;" d="M297 278L298 279L297 278M163 279L164 280L163 279M164 280L165 281L164 280M165 281L166 282L165 281z"/>
<path style="fill:#24547c; stroke:none;" d="M166 282L167 283L166 282z"/>
<path style="fill:#909599; stroke:none;" d="M293 282L294 283L293 282z"/>
<path style="fill:#24547c; stroke:none;" d="M167 283L168 284L167 283z"/>
<path style="fill:#909599; stroke:none;" d="M292 283L293 284L292 283z"/>
<path style="fill:#24547c; stroke:none;" d="M168 284L169 285L168 284z"/>
<path style="fill:#909599; stroke:none;" d="M291 284L292 285L291 284M290 285L291 286L290 285M171 286L172 287L171 286M289 286L290 287L289 286M172 287L173 288L172 287z"/>
<path style="fill:#24547c; stroke:none;" d="M173 288L174 289L173 288z"/>
<path style="fill:#909599; stroke:none;" d="M286 288L287 289L286 288M285 289L286 290L285 289z"/>
<path style="fill:#24547c; stroke:none;" d="M176 290L177 291L176 290z"/>
<path style="fill:#909599; stroke:none;" d="M177 290L178 291L177 290M282.667 290.333L283.333 290.667L282.667 290.333z"/>
<path style="fill:#24547c; stroke:none;" d="M284 290L285 291L284 290z"/>
<path style="fill:#909599; stroke:none;" d="M179 291L180 292L179 291z"/>
<path style="fill:#24547c; stroke:none;" d="M281 291L282 292L281 291M180 292L181 293L180 292z"/>
<path style="fill:#909599; stroke:none;" d="M279 292L280 293L279 292M182 293L183 294L182 293M277 293L278 294L277 293z"/>
<path style="fill:#24547c; stroke:none;" d="M278 293L279 294L278 293z"/>
<path style="fill:#909599; stroke:none;" d="M184.667 294.333L185.333 294.667L184.667 294.333M275 294L276 295L275 294z"/>
<path style="fill:#24547c; stroke:none;" d="M276 294L277 295L276 294M186 295L187 296L186 295z"/>
<path style="fill:#909599; stroke:none;" d="M187 295L188 296L187 295M273 295L274 296L273 295M188 296L189 297L188 296z"/>
<path style="fill:#24547c; stroke:none;" d="M188 297L188 301C171.174 301.347 148.831 306.367 137.905 320.286C133.982 325.285 135.167 333.096 131.397 337.363C126.703 342.674 118.018 342.74 114 349L108 353L106 352C93.4142 366.387 68.3099 382.958 67 404L60.5285 419L56 460L166 460L166 379L177.397 387.213L178 409L178 460L404 460L403.536 433L395 403L393 403C392.001 386.917 374.626 371.551 363.999 361.004C359.644 356.682 354.335 350.578 348 350L342 344L340 345C337.371 341.38 332.537 340.672 329.6 337.366C325.023 332.214 325.871 323.722 320.699 318.09C308.047 304.314 288.782 304.134 272 300C272 315.902 275.349 336.287 268.179 351C255.09 377.858 217.143 383.954 198.04 359.961C187.293 346.462 188 330.353 188 314C188 308.854 189.696 301.73 188 297z"/>
<path style="fill:#909599; stroke:none;" d="M271 297L272 298L271 297M188 301L188 336L189 336L188 301M271 336L271 340L272 340L271 336M189.333 341.667L189.667 342.333L189.333 341.667M270.333 343.667L270.667 344.333L270.333 343.667M340 344L341 345L340 344M190.333 345.667L190.667 346.333L190.333 345.667M343 346L344 347L343 346M269.333 347.667L269.667 348.333L269.333 347.667M113 348L114 349L113 348M191.333 349.667L191.667 350.333L191.333 349.667M348 349L349 350L348 349M192 351L193 352L192 351M107 352L108 353L107 352M267 352L268 353L267 352M193 353L194 354L193 353M266 354L267 355L266 354M265 355L266 356L265 355M195 356L196 357L195 356M101 357L102 358L101 357M264 357L265 358L264 357M196 358L197 359L196 358M197 359L198 360L197 359M198 360L199 361L198 360M199 361L200 362L199 361M200 363L201 364L200 363M202 364L203 365L202 364M203 365L204 366L203 365M204 366L205 367L204 366M205 367L206 368L205 367M207 368L208 369L207 368M208 369L209 370L208 369M251 369L252 370L251 369M210 370L211 371L210 370M250 370L251 371L250 370M212.667 371.333L213.333 371.667L212.667 371.333M246 371L246 372L249 372L246 371M244 372L245 373L244 372M218.667 373.333L219.333 373.667L218.667 373.333M241 373L242 374L241 373M84 374L85 375L84 374M222.667 374.333L223.333 374.667L222.667 374.333M237.667 374.333L238.333 374.667L237.667 374.333M83 375L84 376L83 375M228 375L228 376L232 376L228 375M82 376L83 377L82 376M80 379L81 380L80 379M166 379L167 380L166 379M79 380L80 381L79 380z"/>
<path style="fill:#ecbb8f; stroke:none;" d="M166 380L166 460L178 460L178 409L177.397 387.213L166 380z"/>
<path style="fill:#909599; stroke:none;" d="M168 380L169 381L168 380M291 380L290 382L291 380z"/>
<path style="fill:#ecbb8f; stroke:none;" d="M294 380C290.812 381.2 285.189 383.126 283.603 386.415C281.868 390.015 283 396.089 283 400L283 433C283 437.852 280.87 449.464 284.603 453.106C287.55 455.982 292.584 454.94 293.682 450.941C295.469 444.435 294 435.731 294 429L294 409L294 380z"/>
<path style="fill:#909599; stroke:none;" d="M294 380L294 450L295 450L295 402L294 380M170 381L171 382L170 381M171 382L172 383L171 382M173 383L174 384L173 383M287 383L288 384L287 383M175 384L176 385L175 384M284 384L285 385L284 384M177 385L178 386L177 385M282 385L282 450L283 450L283 406L282 385M393 402L394 403L393 402M66 403L67 404L66 403M394 404L395 405L394 404M284 453L285 454L284 453M285 454L286 455L285 454M287 455L287 456L290 456L287 455z"/>
</svg>
